<svg width="22" height="24" viewBox="0 0 22 24" fill="none" xmlns="http://www.w3.org/2000/svg">
<path d="M11.5742 0.258456C10.9794 -0.0861519 10.2466 -0.0861519 9.65184 0.258456L0.961109 5.29381C0.366362 5.63841 -3.8147e-05 6.27532 -5.72205e-05 6.96452V17.0355L0.000999451 17.0999C0.0230484 17.7642 0.384933 18.3723 0.961109 18.7062L9.65184 23.7415L9.70804 23.7729C10.2735 24.0757 10.9526 24.0757 11.518 23.7729L11.5742 23.7415L20.2649 18.7062C20.8411 18.3723 21.203 17.7642 21.225 17.0999L21.2261 17.0355V6.96452C21.2261 6.29685 20.8822 5.67831 20.3199 5.32701L20.2649 5.29381L11.5742 0.258456ZM18.982 17.6395L12.039 21.6622L16.6598 13.5753L18.982 17.6395ZM9.1871 21.6622L2.24411 17.6395L4.5663 13.5753L9.1871 21.6622ZM15.3118 12.7837L10.6131 21.0068L5.91454 12.7837H15.3118ZM19.6642 15.6824L17.5601 11.9999L19.6642 8.31744V15.6824ZM3.66615 11.9999L1.56184 15.6824V8.31744L3.66615 11.9999ZM15.3119 11.2163H5.9143L10.6131 2.99279L15.3119 11.2163ZM18.982 6.36036L16.6598 10.4244L12.039 2.33764L18.982 6.36036ZM4.5663 10.4243L2.24411 6.36036L9.1871 2.33752L4.5663 10.4243Z" fill="#2E3CFD"/>
</svg>
